<?xml version="1.0" standalone="no"?><!DOCTYPE svg PUBLIC "-//W3C//DTD SVG 1.1//EN" "http://www.w3.org/Graphics/SVG/1.1/DTD/svg11.dtd"><svg t="1704335344675" class="icon" viewBox="0 0 1024 1024" version="1.1" xmlns="http://www.w3.org/2000/svg" p-id="2934" xmlns:xlink="http://www.w3.org/1999/xlink" width="200" height="200"><path d="M422.4 294.4c0-19.2-19.2-38.4-38.4-38.4s-38.4 19.2-38.4 38.4 19.2 38.4 38.4 38.4c25.6 0 38.4-19.2 38.4-38.4zM601.6 480c0-19.2-12.8-32-25.6-32H192c-12.8 0-25.6 12.8-25.6 32s12.8 32 25.6 32h384c12.8 0 25.6-12.8 25.6-32zM640 294.4c0-19.2-19.2-38.4-38.4-38.4s-38.4 19.2-38.4 38.4 19.2 38.4 38.4 38.4 38.4-19.2 38.4-38.4zM204.8 294.4c0-19.2-19.2-38.4-38.4-38.4s-38.4 19.2-38.4 38.4 19.2 38.4 38.4 38.4 38.4-19.2 38.4-38.4z" p-id="2935"></path><path d="M64 851.2V172.8c0-25.6 19.2-44.8 38.4-44.8h569.6c19.2 0 32 19.2 32 44.8v352h64V160c0-51.2-38.4-96-83.2-96H89.6C38.4 64 0 108.8 0 160v697.6c0 51.2 38.4 102.4 89.6 102.4H512v-64H102.4c-19.2 0-38.4-19.2-38.4-44.8z" p-id="2936"></path><path d="M998.4 742.4l-38.4-6.4c-6.4-25.6-12.8-32-25.6-57.6l25.6-25.6c6.4-6.4 6.4-12.8 0-19.2l-25.6-25.6c-6.4-6.4-12.8-6.4-19.2 0l-32 25.6c-19.2-12.8-38.4-19.2-64-25.6l-6.4-44.8c0-6.4-6.4-12.8-12.8-12.8h-38.4c-6.4 0-12.8 6.4-12.8 12.8l-6.4 44.8c-19.2 6.4-38.4 19.2-51.2 25.6l-32-25.6c-6.4-6.4-12.8-6.4-19.2 0l-25.6 25.6c-6.4 6.4-6.4 12.8 0 19.2l25.6 25.6c-12.8 19.2-25.6 38.4-32 64l-38.4 6.4c-6.4 0-12.8 6.4-12.8 12.8v38.4c0 6.4 6.4 12.8 12.8 12.8l38.4 6.4c6.4 19.2 12.8 44.8 25.6 64l-19.2 32c-6.4 6.4-6.4 12.8 0 19.2l25.6 25.6c6.4 6.4 12.8 6.4 19.2 0l32-25.6c19.2 12.8 38.4 25.6 57.6 32l6.4 32c0 6.4 6.4 12.8 12.8 12.8h38.4c6.4 0 12.8-6.4 12.8-12.8l6.4-32c19.2-6.4 51.2-19.2 70.4-32l25.6 19.2c6.4 6.4 12.8 6.4 19.2 0l25.6-25.6c6.4-6.4 6.4-12.8 0-19.2l-19.2-32c12.8-19.2 19.2-32 25.6-57.6l38.4-12.8c6.4 0 12.8-6.4 12.8-12.8v-32c0-12.8-12.8-19.2-25.6-19.2z m-217.6 172.8c-70.4 0-128-64-128-128s64-128 128-128c76.8 0 134.4 64 128 128s-57.6 128-128 128z" p-id="2937"></path><path d="M780.8 697.6c-44.8 0-89.6 38.4-89.6 89.6s38.4 89.6 89.6 89.6 89.6-38.4 89.6-89.6-44.8-89.6-89.6-89.6z m0 128c-19.2 0-38.4-19.2-38.4-38.4s19.2-38.4 38.4-38.4 38.4 19.2 38.4 38.4-19.2 38.4-38.4 38.4zM153.6 704h435.2V640H153.6c-12.8 0-19.2 12.8-25.6 32 0 19.2 12.8 32 25.6 32z" p-id="2938"></path></svg>